<svg width="35" height="38" viewBox="0 0 35 38" fill="none" xmlns="http://www.w3.org/2000/svg">
<path d="M33.8774 28.6033C33.7292 28.4247 33.5837 28.2462 33.4408 28.0738C31.4765 25.6979 30.2881 24.264 30.2881 17.5381C30.2881 14.056 29.4551 11.1988 27.8131 9.05597C26.6024 7.47294 24.9658 6.27204 22.8087 5.38454C22.7809 5.3691 22.7561 5.34884 22.7355 5.32472C21.9596 2.72651 19.8364 0.986328 17.4417 0.986328C15.0471 0.986328 12.9248 2.72651 12.1489 5.32204C12.1282 5.34532 12.1037 5.36494 12.0765 5.38008C7.04261 7.4524 4.59618 11.4283 4.59618 17.5354C4.59618 24.264 3.40957 25.6979 1.4435 28.0711C1.30065 28.2435 1.15511 28.4185 1.0069 28.6006C0.624041 29.0623 0.38147 29.6241 0.307891 30.2193C0.234313 30.8146 0.332808 31.4185 0.591718 31.9595C1.14261 33.1203 2.31672 33.8408 3.6569 33.8408H31.2364C32.5703 33.8408 33.7364 33.1212 34.289 31.9658C34.5491 31.4246 34.6485 30.8202 34.5755 30.2243C34.5026 29.6283 34.2603 29.0658 33.8774 28.6033ZM17.4417 37.9863C18.7319 37.9853 19.9978 37.6351 21.1051 36.9728C22.2124 36.3105 23.1197 35.3609 23.731 34.2247C23.7598 34.1703 23.774 34.1093 23.7723 34.0477C23.7706 33.9861 23.7529 33.9261 23.7211 33.8733C23.6893 33.8206 23.6444 33.7769 23.5907 33.7467C23.5371 33.7164 23.4765 33.7006 23.4149 33.7006H17.4426H11.4703C11.4086 33.7004 11.3479 33.7162 11.2942 33.7464C11.2404 33.7766 11.1953 33.8202 11.1634 33.8729C11.1315 33.9257 11.1138 33.9859 11.112 34.0475C11.1103 34.1091 11.1245 34.1702 11.1533 34.2247C11.7645 35.3608 12.6718 36.3103 13.7789 36.9726C14.886 37.6348 16.1517 37.9851 17.4417 37.9863Z" fill="black"/>
</svg>
