<svg width="19" height="20" viewBox="0 0 19 20" fill="none" xmlns="http://www.w3.org/2000/svg">
<path d="M18.7464 14.5265C18.7074 14.9245 18.5664 15.3055 18.3364 15.6315C18.118 15.9476 17.826 16.2059 17.4856 16.3842C17.1452 16.5624 16.7666 16.6552 16.3824 16.6545H13.3864C13.3357 16.9245 13.2607 17.1872 13.1614 17.4425C12.955 17.9459 12.6527 18.4044 12.2714 18.7925C11.8858 19.1794 11.4268 19.4854 10.9214 19.6925C10.4398 19.8855 9.92521 19.983 9.40638 19.9795H9.29438C8.76316 19.9802 8.23741 19.8723 7.74938 19.6625C7.25164 19.4565 6.79939 19.1543 6.41847 18.7734C6.03755 18.3925 5.73543 17.9402 5.52938 17.4425C5.42463 17.1893 5.34914 16.9249 5.30438 16.6545H2.40838C2.03149 16.6838 1.65321 16.6197 1.30698 16.468C0.960757 16.3162 0.657272 16.0815 0.423378 15.7845C0.19922 15.4247 0.0597062 15.0186 0.0153601 14.597C-0.028986 14.1753 0.0229934 13.7491 0.167378 13.3505C0.388378 12.7585 0.691378 12.2005 1.06738 11.6925C1.496 11.1712 1.78199 10.5475 1.89738 9.88251C1.89738 6.91551 1.89738 5.92251 3.51338 3.99951C4.04625 3.36266 4.7086 2.84655 5.45638 2.48551L6.26538 2.09751C6.29984 2.07871 6.32801 2.05019 6.34638 2.0155C6.38353 1.97967 6.40868 1.93321 6.41838 1.88251C6.53971 1.20139 6.90301 0.58702 7.44138 0.152505C7.5743 0.0534851 7.73563 0 7.90138 0C8.06713 0 8.22846 0.0534851 8.36138 0.152505C8.49747 0.249031 8.5995 0.386165 8.65286 0.54425C8.70621 0.702335 8.70814 0.873254 8.65838 1.03251C8.65838 1.03251 7.47238 4.7365 9.68138 6.9765C11.8914 9.2165 15.5844 7.1095 15.6254 7.0895C15.7402 7.02237 15.8709 6.98699 16.0039 6.98699C16.1369 6.98699 16.2675 7.02237 16.3824 7.0895C16.4973 7.15606 16.5927 7.25156 16.6592 7.36648C16.7257 7.4814 16.7609 7.61173 16.7614 7.74451V9.92351C16.8994 10.6335 17.2124 11.2975 17.6714 11.8565C18.0374 12.3465 18.3364 12.8835 18.5614 13.4525C18.7114 13.7895 18.7744 14.1595 18.7454 14.5265" fill="black"/>
<path d="M12.6795 6.08646C13.4173 6.08646 14.1249 5.79336 14.6466 5.27163C15.1684 4.74991 15.4615 4.04229 15.4615 3.30446C15.4615 2.56663 15.1684 1.85902 14.6466 1.33729C14.1249 0.815564 13.4173 0.522461 12.6795 0.522461C11.9416 0.522461 11.234 0.815564 10.7123 1.33729C10.1906 1.85902 9.89746 2.56663 9.89746 3.30446C9.89746 4.04229 10.1906 4.74991 10.7123 5.27163C11.234 5.79336 11.9416 6.08646 12.6795 6.08646Z" fill="black"/>
</svg>
